<svg width="220" height="32" viewBox="0 0 220 32" fill="none" xmlns="http://www.w3.org/2000/svg">
<path d="M88.4065 23.9668H98.0452C100.33 23.9668 101.688 22.6387 101.688 20.3633V19.1426L105.135 22.0625C105.516 22.3848 105.946 22.6094 106.336 22.6094C107.156 22.6094 107.713 22.0039 107.713 21.125V11.5449C107.713 10.666 107.156 10.0703 106.336 10.0703C105.946 10.0703 105.516 10.2852 105.135 10.6172L101.688 13.5274V12.2871C101.688 10.0215 100.33 8.69337 98.0452 8.69337H88.4065C86.2092 8.69337 84.7639 10.0215 84.7639 12.2871V20.3828C84.7639 22.6582 86.1213 23.9668 88.4065 23.9668ZM88.6799 22.4922C87.1858 22.4922 86.3362 21.7109 86.3362 20.1289V12.5215C86.3362 10.9492 87.1858 10.168 88.6799 10.168H97.7717C99.2561 10.168 100.115 10.9492 100.115 12.5215V20.1289C100.115 21.7109 99.2561 22.4922 97.7717 22.4922H88.6799ZM105.828 20.7246L101.688 17.3164V15.3535L105.828 11.9551C105.906 11.8867 105.965 11.8477 106.043 11.8477C106.151 11.8477 106.199 11.9258 106.199 12.0527V20.6172C106.199 20.7441 106.151 20.832 106.043 20.832C105.965 20.832 105.906 20.7832 105.828 20.7246Z" fill="white" fill-opacity="0.6"/>
<path d="M139.924 21.3887C139.924 22.0918 140.471 22.5606 141.369 22.5606H145.237C145.315 24.3379 146.721 25.9199 148.723 25.9199C150.725 25.9199 152.131 24.3477 152.219 22.5606H156.076C156.975 22.5606 157.522 22.0918 157.522 21.3887C157.522 20.4414 156.594 19.6113 155.783 18.791C155.158 18.1563 155.002 16.8574 154.914 15.7246C154.826 12.1309 153.86 9.78712 151.418 8.89845C151.096 7.68751 150.09 6.74024 148.723 6.74024C147.356 6.74024 146.36 7.68751 146.028 8.89845C143.586 9.78712 142.619 12.1309 142.531 15.7246C142.453 16.8574 142.287 18.1563 141.662 18.791C140.852 19.6113 139.924 20.4414 139.924 21.3887ZM141.858 21.0762V20.959C142.053 20.6953 142.6 20.168 143.069 19.6309C143.723 18.8984 144.035 17.6582 144.114 15.8711C144.201 11.9356 145.383 10.6563 146.936 10.2363C147.17 10.1777 147.297 10.0703 147.307 9.82618C147.346 8.86915 147.883 8.21485 148.723 8.21485C149.563 8.21485 150.11 8.86915 150.139 9.82618C150.158 10.0703 150.285 10.1777 150.51 10.2363C152.063 10.6563 153.244 11.9356 153.332 15.8711C153.42 17.6582 153.723 18.8984 154.377 19.6309C154.856 20.168 155.393 20.6953 155.578 20.959V21.0762H141.858ZM146.78 22.5606H150.676C150.608 23.7813 149.817 24.5625 148.723 24.5625C147.629 24.5625 146.848 23.7813 146.78 22.5606Z" fill="white" fill-opacity="0.6"/>
<rect x="188" width="32" height="32" rx="16" fill="#22D7FF"/>
<path d="M197.73 23H200.025L201.305 19.1914H206.695L207.965 23H210.27L205.182 8.90821H202.818L197.73 23ZM203.912 11.3789H204.078L206.109 17.4336H201.891L203.912 11.3789Z" fill="white"/>
</svg>
