<svg width="445" height="40" viewBox="0 0 445 40" fill="none" xmlns="http://www.w3.org/2000/svg">
<rect x="3" width="442" height="40" rx="20" fill="url(#paint0_linear_1230_9611)" fill-opacity="0.1"/>
<rect x="3.5" y="0.5" width="441" height="39" rx="19.5" stroke="white" stroke-opacity="0.5" style="mix-blend-mode:overlay"/>
<path d="M415 10C420.523 4.47715 429.477 4.47715 435 10V10C440.523 15.5228 440.523 24.4772 435 30V30C429.477 35.5228 420.523 35.5228 415 30V30C409.477 24.4772 409.477 15.5228 415 10V10Z" stroke="url(#paint1_linear_1230_9611)"/>
<path d="M425.5 22.4062C427.086 22.4062 428.242 21.2265 428.242 19.4922V14.2344C428.242 12.5078 427.086 11.3203 425.5 11.3203C423.914 11.3203 422.758 12.5078 422.758 14.2344V19.4922C422.758 21.2265 423.914 22.4062 425.5 22.4062ZM419.57 19.6719C419.57 22.8828 421.703 25.0859 424.789 25.3828V26.9844H421.914C421.516 26.9844 421.18 27.3125 421.18 27.7187C421.18 28.1172 421.516 28.4453 421.914 28.4453H429.086C429.492 28.4453 429.828 28.1172 429.828 27.7187C429.828 27.3125 429.492 26.9844 429.086 26.9844H426.219V25.3828C429.297 25.0859 431.438 22.8828 431.438 19.6719V18.125C431.438 17.7187 431.109 17.3984 430.703 17.3984C430.297 17.3984 429.961 17.7187 429.961 18.125V19.6172C429.961 22.2734 428.164 24.0312 425.5 24.0312C422.836 24.0312 421.039 22.2734 421.039 19.6172V18.125C421.039 17.7187 420.711 17.3984 420.305 17.3984C419.898 17.3984 419.57 17.7187 419.57 18.125V19.6719Z" fill="white" fill-opacity="0.6"/>
<path d="M21.9007 23.7086C22.9649 23.7086 23.9464 23.3677 24.7493 22.7996L27.77 25.7917C27.9102 25.9306 28.0951 26 28.2926 26C28.7069 26 29 25.6844 29 25.2804C29 25.091 28.9363 24.9079 28.7961 24.7754L25.7945 21.7959C26.4254 20.9753 26.8014 19.959 26.8014 18.8543C26.8014 16.1841 24.5964 14 21.9007 14C19.2114 14 17 16.1778 17 18.8543C17 21.5245 19.205 23.7086 21.9007 23.7086ZM21.9007 22.6607C19.7977 22.6607 18.0579 20.9374 18.0579 18.8543C18.0579 16.7712 19.7977 15.0479 21.9007 15.0479C24.0037 15.0479 25.7435 16.7712 25.7435 18.8543C25.7435 20.9374 24.0037 22.6607 21.9007 22.6607Z" fill="#EBEBF5" fill-opacity="0.6"/>
<path d="M47.8825 20.5215V24.0965C47.4145 24.4345 46.914 24.688 46.381 24.857C45.8523 25.0217 45.2716 25.104 44.639 25.104C43.8893 25.104 43.2133 24.9892 42.611 24.7595C42.0086 24.5255 41.493 24.2005 41.064 23.7845C40.6393 23.3642 40.3121 22.8615 40.0825 22.2765C39.8528 21.6915 39.738 21.048 39.738 20.346C39.738 19.6353 39.8485 18.9875 40.0695 18.4025C40.2948 17.8175 40.6133 17.317 41.025 16.901C41.4366 16.4807 41.9371 16.1557 42.5265 15.926C43.1158 15.6963 43.7745 15.5815 44.5025 15.5815C44.8708 15.5815 45.2131 15.6097 45.5295 15.666C45.8458 15.718 46.1383 15.796 46.407 15.9C46.6756 15.9997 46.9248 16.1232 47.1545 16.2705C47.3841 16.4135 47.5986 16.576 47.798 16.758L47.4405 17.33C47.3841 17.4167 47.3105 17.473 47.2195 17.499C47.1328 17.5207 47.0353 17.499 46.927 17.434C46.823 17.3733 46.7038 17.2997 46.5695 17.213C46.4351 17.1263 46.2705 17.044 46.0755 16.966C45.8848 16.8837 45.6573 16.8143 45.393 16.758C45.133 16.7017 44.8231 16.6735 44.4635 16.6735C43.9391 16.6735 43.4646 16.7602 43.04 16.9335C42.6153 17.1025 42.2535 17.3473 41.9545 17.668C41.6555 17.9843 41.4258 18.37 41.2655 18.825C41.1051 19.2757 41.025 19.7827 41.025 20.346C41.025 20.931 41.1073 21.4553 41.272 21.919C41.441 22.3783 41.6793 22.7705 41.987 23.0955C42.299 23.4162 42.676 23.661 43.118 23.83C43.56 23.999 44.0561 24.0835 44.6065 24.0835C45.0398 24.0835 45.4233 24.0358 45.757 23.9405C46.095 23.8408 46.4243 23.7043 46.745 23.531V21.4835H45.2955C45.2131 21.4835 45.146 21.4597 45.094 21.412C45.0463 21.3643 45.0225 21.3058 45.0225 21.2365V20.5215H47.8825ZM53.8704 20.9895C53.8704 20.7208 53.8314 20.476 53.7534 20.255C53.6797 20.0297 53.5692 19.8368 53.4219 19.6765C53.2789 19.5118 53.1034 19.3862 52.8954 19.2995C52.6874 19.2085 52.4512 19.163 52.1869 19.163C51.6322 19.163 51.1924 19.3255 50.8674 19.6505C50.5467 19.9712 50.3474 20.4175 50.2694 20.9895H53.8704ZM54.8064 24.077C54.6634 24.2503 54.4922 24.402 54.2929 24.532C54.0935 24.6577 53.879 24.7617 53.6494 24.844C53.424 24.9263 53.19 24.987 52.9474 25.026C52.7047 25.0693 52.4642 25.091 52.2259 25.091C51.7709 25.091 51.3505 25.0152 50.9649 24.8635C50.5835 24.7075 50.252 24.4822 49.9704 24.1875C49.693 23.8885 49.4764 23.5202 49.3204 23.0825C49.1644 22.6448 49.0864 22.1422 49.0864 21.5745C49.0864 21.1152 49.1557 20.6862 49.2944 20.2875C49.4374 19.8888 49.641 19.5443 49.9054 19.254C50.1697 18.9593 50.4925 18.7297 50.8739 18.565C51.2552 18.396 51.6842 18.3115 52.1609 18.3115C52.5552 18.3115 52.9192 18.3787 53.2529 18.513C53.5909 18.643 53.8812 18.8337 54.1239 19.085C54.3709 19.332 54.5637 19.6397 54.7024 20.008C54.841 20.372 54.9104 20.788 54.9104 21.256C54.9104 21.438 54.8909 21.5593 54.8519 21.62C54.8129 21.6807 54.7392 21.711 54.6309 21.711H50.2304C50.2434 22.127 50.2997 22.4888 50.3994 22.7965C50.5034 23.1042 50.6464 23.362 50.8284 23.57C51.0104 23.7737 51.227 23.9275 51.4784 24.0315C51.7297 24.1312 52.0114 24.181 52.3234 24.181C52.6137 24.181 52.8629 24.1485 53.0709 24.0835C53.2832 24.0142 53.4652 23.9405 53.6169 23.8625C53.7685 23.7845 53.8942 23.713 53.9939 23.648C54.0979 23.5787 54.1867 23.544 54.2604 23.544C54.3557 23.544 54.4294 23.5808 54.4814 23.6545L54.8064 24.077ZM57.5535 18.4155V25H56.3965V18.4155H57.5535ZM57.8005 16.3485C57.8005 16.4612 57.7767 16.5673 57.729 16.667C57.6857 16.7623 57.625 16.849 57.547 16.927C57.4734 17.0007 57.3845 17.0592 57.2805 17.1025C57.1809 17.1458 57.0747 17.1675 56.962 17.1675C56.8494 17.1675 56.7432 17.1458 56.6435 17.1025C56.5482 17.0592 56.4637 17.0007 56.39 16.927C56.3164 16.849 56.2579 16.7623 56.2145 16.667C56.1712 16.5673 56.1495 16.4612 56.1495 16.3485C56.1495 16.2358 56.1712 16.1297 56.2145 16.03C56.2579 15.926 56.3164 15.8372 56.39 15.7635C56.4637 15.6855 56.5482 15.6248 56.6435 15.5815C56.7432 15.5382 56.8494 15.5165 56.962 15.5165C57.0747 15.5165 57.1809 15.5382 57.2805 15.5815C57.3845 15.6248 57.4734 15.6855 57.547 15.7635C57.625 15.8372 57.6857 15.926 57.729 16.03C57.7767 16.1297 57.8005 16.2358 57.8005 16.3485ZM63.2896 19.501C63.2376 19.5963 63.1574 19.644 63.0491 19.644C62.9841 19.644 62.9104 19.6202 62.8281 19.5725C62.7458 19.5248 62.6439 19.4728 62.5226 19.4165C62.4056 19.3558 62.2648 19.3017 62.1001 19.254C61.9354 19.202 61.7404 19.176 61.5151 19.176C61.3201 19.176 61.1446 19.202 60.9886 19.254C60.8326 19.3017 60.6983 19.3688 60.5856 19.4555C60.4773 19.5422 60.3928 19.644 60.3321 19.761C60.2758 19.8737 60.2476 19.9972 60.2476 20.1315C60.2476 20.3005 60.2953 20.4413 60.3906 20.554C60.4903 20.6667 60.6203 20.7642 60.7806 20.8465C60.9409 20.9288 61.1229 21.0025 61.3266 21.0675C61.5303 21.1282 61.7383 21.1953 61.9506 21.269C62.1673 21.3383 62.3774 21.4163 62.5811 21.503C62.7848 21.5897 62.9668 21.698 63.1271 21.828C63.2874 21.958 63.4153 22.1183 63.5106 22.309C63.6103 22.4953 63.6601 22.7207 63.6601 22.985C63.6601 23.2883 63.6059 23.57 63.4976 23.83C63.3893 24.0857 63.2289 24.3088 63.0166 24.4995C62.8043 24.6858 62.5443 24.8332 62.2366 24.9415C61.9289 25.0498 61.5736 25.104 61.1706 25.104C60.7113 25.104 60.2953 25.0303 59.9226 24.883C59.5499 24.7313 59.2336 24.5385 58.9736 24.3045L59.2466 23.8625C59.2813 23.8062 59.3224 23.7628 59.3701 23.7325C59.4178 23.7022 59.4784 23.687 59.5521 23.687C59.6301 23.687 59.7124 23.7173 59.7991 23.778C59.8858 23.8387 59.9898 23.9058 60.1111 23.9795C60.2368 24.0532 60.3884 24.1203 60.5661 24.181C60.7438 24.2417 60.9648 24.272 61.2291 24.272C61.4544 24.272 61.6516 24.2438 61.8206 24.1875C61.9896 24.1268 62.1304 24.0467 62.2431 23.947C62.3558 23.8473 62.4381 23.7325 62.4901 23.6025C62.5464 23.4725 62.5746 23.3338 62.5746 23.1865C62.5746 23.0045 62.5248 22.855 62.4251 22.738C62.3298 22.6167 62.2019 22.5148 62.0416 22.4325C61.8813 22.3458 61.6971 22.2722 61.4891 22.2115C61.2854 22.1465 61.0753 22.0793 60.8586 22.01C60.6463 21.9407 60.4361 21.8627 60.2281 21.776C60.0244 21.685 59.8424 21.5723 59.6821 21.438C59.5218 21.3037 59.3918 21.139 59.2921 20.944C59.1968 20.7447 59.1491 20.5042 59.1491 20.2225C59.1491 19.9712 59.2011 19.7307 59.3051 19.501C59.4091 19.267 59.5608 19.0633 59.7601 18.89C59.9594 18.7123 60.2043 18.5715 60.4946 18.4675C60.7849 18.3635 61.1164 18.3115 61.4891 18.3115C61.9224 18.3115 62.3103 18.3808 62.6526 18.5195C62.9993 18.6538 63.2983 18.8402 63.5496 19.0785L63.2896 19.501ZM66.2421 19.293C66.5238 18.994 66.8358 18.7557 67.1781 18.578C67.5204 18.4003 67.9148 18.3115 68.3611 18.3115C68.7208 18.3115 69.0371 18.3722 69.3101 18.4935C69.5874 18.6105 69.8171 18.7795 69.9991 19.0005C70.1854 19.2172 70.3263 19.4793 70.4216 19.787C70.5169 20.0947 70.5646 20.4348 70.5646 20.8075V25H69.4011V20.8075C69.4011 20.3092 69.2863 19.9235 69.0566 19.6505C68.8313 19.3732 68.4868 19.2345 68.0231 19.2345C67.6808 19.2345 67.3601 19.3168 67.0611 19.4815C66.7664 19.6462 66.4934 19.8693 66.2421 20.151V25H65.0786V15.4255H66.2421V19.293ZM75.8961 22.036C75.3631 22.0533 74.9081 22.0967 74.5311 22.166C74.1585 22.231 73.853 22.3177 73.6146 22.426C73.3806 22.5343 73.2095 22.6622 73.1011 22.8095C72.9971 22.9568 72.9451 23.1215 72.9451 23.3035C72.9451 23.4768 72.9733 23.6263 73.0296 23.752C73.086 23.8777 73.1618 23.9817 73.2571 24.064C73.3568 24.142 73.4716 24.2005 73.6016 24.2395C73.736 24.2742 73.879 24.2915 74.0306 24.2915C74.2343 24.2915 74.4206 24.272 74.5896 24.233C74.7586 24.1897 74.9168 24.129 75.0641 24.051C75.2158 23.973 75.3588 23.8798 75.4931 23.7715C75.6318 23.6632 75.7661 23.5397 75.8961 23.401V22.036ZM72.1586 19.345C72.5226 18.994 72.9148 18.7318 73.3351 18.5585C73.7555 18.3852 74.2213 18.2985 74.7326 18.2985C75.101 18.2985 75.4281 18.3592 75.7141 18.4805C76.0001 18.6018 76.2406 18.7708 76.4356 18.9875C76.6306 19.2042 76.778 19.4663 76.8776 19.774C76.9773 20.0817 77.0271 20.4197 77.0271 20.788V25H76.5136C76.401 25 76.3143 24.9827 76.2536 24.948C76.193 24.909 76.1453 24.8353 76.1106 24.727L75.9806 24.103C75.8073 24.2633 75.6383 24.4063 75.4736 24.532C75.309 24.6533 75.1356 24.7573 74.9536 24.844C74.7716 24.9263 74.5766 24.9892 74.3686 25.0325C74.165 25.0802 73.9375 25.104 73.6861 25.104C73.4305 25.104 73.19 25.0693 72.9646 25C72.7393 24.9263 72.5421 24.818 72.3731 24.675C72.2085 24.532 72.0763 24.3522 71.9766 24.1355C71.8813 23.9145 71.8336 23.6545 71.8336 23.3555C71.8336 23.0955 71.9051 22.8463 72.0481 22.608C72.1911 22.3653 72.423 22.1508 72.7436 21.9645C73.0643 21.7782 73.4825 21.6265 73.9981 21.5095C74.5138 21.3882 75.1465 21.3188 75.8961 21.3015V20.788C75.8961 20.2767 75.7856 19.891 75.5646 19.631C75.3436 19.3667 75.0208 19.2345 74.5961 19.2345C74.3101 19.2345 74.0696 19.2713 73.8746 19.345C73.684 19.4143 73.5171 19.4945 73.3741 19.5855C73.2355 19.6722 73.1141 19.7523 73.0101 19.826C72.9105 19.8953 72.8108 19.93 72.7111 19.93C72.6331 19.93 72.566 19.9105 72.5096 19.8715C72.4533 19.8282 72.4056 19.7762 72.3666 19.7155L72.1586 19.345Z" fill="white"/>
<defs>
<linearGradient id="paint0_linear_1230_9611" x1="-218" y1="20" x2="-210.819" y2="99.3501" gradientUnits="userSpaceOnUse">
<stop stop-color="#0F55E8"/>
<stop offset="1" stop-color="#9DDFF3"/>
</linearGradient>
<linearGradient id="paint1_linear_1230_9611" x1="411.5" y1="5" x2="440.5" y2="31" gradientUnits="userSpaceOnUse">
<stop stop-color="#A73EE7"/>
<stop offset="1" stop-color="#00EBFF"/>
</linearGradient>
</defs>
</svg>
